<svg xmlns="http://www.w3.org/2000/svg" width="46" height="46" viewBox="0 0 46 46">
  <defs>
    <style>
      .cls-1 {
        fill: #f99d1c;
      }

      .cls-2, .cls-4 {
        fill: none;
      }

      .cls-2 {
        stroke: #f99d1c;
        stroke-width: 2px;
      }

      .cls-3 {
        stroke: none;
      }
    </style>
  </defs>
  <g id="Group_1" data-name="Group 1" transform="translate(0 0.29)">
    <path id="Icon_awesome-instagram" data-name="Icon awesome-instagram" class="cls-1" d="M12.861,8.5A6.594,6.594,0,1,0,19.455,15.1,6.584,6.584,0,0,0,12.861,8.5Zm0,10.882A4.287,4.287,0,1,1,17.148,15.1a4.3,4.3,0,0,1-4.287,4.287Zm8.4-11.151A1.538,1.538,0,1,1,19.725,6.7,1.535,1.535,0,0,1,21.263,8.234Zm4.368,1.561a7.612,7.612,0,0,0-2.078-5.389,7.662,7.662,0,0,0-5.389-2.078c-2.124-.121-8.488-.121-10.612,0A7.651,7.651,0,0,0,2.163,4.4,7.637,7.637,0,0,0,.085,9.789c-.121,2.124-.121,8.488,0,10.612A7.612,7.612,0,0,0,2.163,25.79a7.672,7.672,0,0,0,5.389,2.078c2.124.121,8.488.121,10.612,0a7.612,7.612,0,0,0,5.389-2.078A7.662,7.662,0,0,0,25.631,20.4c.121-2.124.121-8.483,0-10.606ZM22.887,22.68a4.341,4.341,0,0,1-2.445,2.445c-1.693.671-5.711.517-7.582.517s-5.894.149-7.582-.517A4.341,4.341,0,0,1,2.834,22.68c-.672-1.693-.517-5.711-.517-7.582S2.168,9.2,2.834,7.516A4.341,4.341,0,0,1,5.279,5.071c1.693-.671,5.711-.517,7.582-.517s5.894-.149,7.582.517a4.341,4.341,0,0,1,2.445,2.445c.672,1.693.517,5.711.517,7.582S23.559,20.992,22.887,22.68Z" transform="translate(9.997 7.757)"/>
    <g id="Ellipse_1" data-name="Ellipse 1" class="cls-2" transform="translate(0 -0.29)">
      <circle class="cls-3" cx="23" cy="23" r="23"/>
      <circle class="cls-4" cx="23" cy="23" r="22"/>
    </g>
  </g>
</svg>
