<svg id="Group_1" data-name="Group 1" xmlns="http://www.w3.org/2000/svg" width="105.503" height="105.503" viewBox="0 0 105.503 105.503">
  <defs>
    <style>
      .cls-1 {
        fill: #fff;
      }

      .cls-2 {
        fill: none;
      }

      .cls-3, .cls-4 {
        stroke: none;
      }

      .cls-4 {
        fill: #fff;
      }
    </style>
  </defs>
  <path id="Icon_awesome-instagram" data-name="Icon awesome-instagram" class="cls-1" d="M29.691,16.7a15.22,15.22,0,1,0,15.22,15.22A15.2,15.2,0,0,0,29.691,16.7Zm0,25.116a9.9,9.9,0,1,1,9.9-9.9,9.913,9.913,0,0,1-9.9,9.9ZM49.084,16.077a3.55,3.55,0,1,1-3.55-3.55A3.542,3.542,0,0,1,49.084,16.077Zm10.081,3.6c-.225-4.756-1.311-8.968-4.8-12.439s-7.683-4.557-12.439-4.8c-4.9-.278-19.592-.278-24.493,0C12.7,2.672,8.483,3.758,5,7.228S.442,14.911.2,19.667c-.278,4.9-.278,19.592,0,24.493C.429,48.916,1.515,53.128,5,56.6s7.683,4.557,12.439,4.8c4.9.278,19.592.278,24.493,0,4.756-.225,8.968-1.311,12.439-4.8s4.557-7.683,4.8-12.439c.278-4.9.278-19.579,0-24.48ZM52.833,49.419a10.018,10.018,0,0,1-5.643,5.643c-3.908,1.55-13.18,1.192-17.5,1.192s-13.6.344-17.5-1.192a10.018,10.018,0,0,1-5.643-5.643C5,45.511,5.356,36.239,5.356,31.92s-.344-13.6,1.192-17.5a10.018,10.018,0,0,1,5.643-5.643c3.908-1.55,13.18-1.192,17.5-1.192s13.6-.344,17.5,1.192a10.018,10.018,0,0,1,5.643,5.643c1.55,3.908,1.192,13.18,1.192,17.5S54.382,45.525,52.833,49.419Z" transform="translate(23.067 20.831)"/>
  <g id="Path_750" data-name="Path 750" class="cls-2" transform="translate(0)">
    <path class="cls-3" d="M52.751,0A52.751,52.751,0,1,1,0,52.751,52.751,52.751,0,0,1,52.751,0Z"/>
    <path class="cls-4" d="M 52.75136947631836 3 C 46.03365325927734 3 39.51848602294922 4.31500244140625 33.38681793212891 6.908485412597656 C 27.46282196044922 9.414115905761719 22.14188385009766 13.00180053710938 17.57183837890625 17.57183837890625 C 13.00180053710938 22.14188385009766 9.414115905761719 27.46282196044922 6.908485412597656 33.38681793212891 C 4.31500244140625 39.51848602294922 3 46.03365325927734 3 52.75136947631836 C 3 59.46908569335938 4.31500244140625 65.98426818847656 6.908485412597656 72.11593627929688 C 9.414115905761719 78.03993225097656 13.00180053710938 83.36085510253906 17.57183837890625 87.93090057373047 C 22.14188385009766 92.50095367431641 27.46282196044922 96.088623046875 33.38681793212891 98.59425354003906 C 39.51848602294922 101.1877365112305 46.03365325927734 102.5027389526367 52.75136947631836 102.5027389526367 C 59.46908569335938 102.5027389526367 65.98426818847656 101.1877365112305 72.11593627929688 98.59425354003906 C 78.03993225097656 96.088623046875 83.36085510253906 92.50095367431641 87.93090057373047 87.93090057373047 C 92.50095367431641 83.36085510253906 96.088623046875 78.03993225097656 98.59425354003906 72.11593627929688 C 101.1877365112305 65.98426818847656 102.5027389526367 59.46908569335938 102.5027389526367 52.75136947631836 C 102.5027389526367 46.03365325927734 101.1877365112305 39.51848602294922 98.59425354003906 33.38681793212891 C 96.088623046875 27.46282196044922 92.50095367431641 22.14188385009766 87.93090057373047 17.57183837890625 C 83.36085510253906 13.00180053710938 78.03993225097656 9.414115905761719 72.11593627929688 6.908485412597656 C 65.98426818847656 4.31500244140625 59.46908569335938 3 52.75136947631836 3 M 52.75136947631836 0 C 81.88515472412109 0 105.5027389526367 23.61759948730469 105.5027389526367 52.75136947631836 C 105.5027389526367 81.88515472412109 81.88515472412109 105.5027389526367 52.75136947631836 105.5027389526367 C 23.61759948730469 105.5027389526367 0 81.88515472412109 0 52.75136947631836 C 0 23.61759948730469 23.61759948730469 0 52.75136947631836 0 Z"/>
  </g>
</svg>
