<svg xmlns="http://www.w3.org/2000/svg" width="298" height="298" viewBox="0 0 298 298">
  <defs>
    <style>
      .cls-1 {
        fill: #fff;
      }
    </style>
  </defs>
  <path id="Subtraction_2" data-name="Subtraction 2" class="cls-1" d="M-1833.5-376.5a150.1,150.1,0,0,1-30.029-3.027,148.249,148.249,0,0,1-27.969-8.682,149.017,149.017,0,0,1-25.31-13.738,150.08,150.08,0,0,1-22.052-18.194,150.066,150.066,0,0,1-18.194-22.052,149.029,149.029,0,0,1-13.738-25.31,148.247,148.247,0,0,1-8.682-27.969A150.1,150.1,0,0,1-1982.5-525.5a150.1,150.1,0,0,1,3.027-30.029,148.245,148.245,0,0,1,8.682-27.969,149.024,149.024,0,0,1,13.738-25.31,150.067,150.067,0,0,1,18.194-22.052,150.072,150.072,0,0,1,22.052-18.194,149.012,149.012,0,0,1,25.31-13.738,148.248,148.248,0,0,1,27.969-8.682A150.1,150.1,0,0,1-1833.5-674.5a150.1,150.1,0,0,1,30.029,3.027,148.251,148.251,0,0,1,27.969,8.682,149.024,149.024,0,0,1,25.31,13.738,150.064,150.064,0,0,1,22.051,18.194,150.061,150.061,0,0,1,18.194,22.052,149.008,149.008,0,0,1,13.738,25.31,148.256,148.256,0,0,1,8.682,27.969A150.1,150.1,0,0,1-1684.5-525.5a150.1,150.1,0,0,1-3.027,30.029,148.259,148.259,0,0,1-8.682,27.969,149.015,149.015,0,0,1-13.738,25.31,150.064,150.064,0,0,1-18.194,22.052,150.073,150.073,0,0,1-22.051,18.194,149.017,149.017,0,0,1-25.31,13.738,148.247,148.247,0,0,1-27.969,8.682A150.1,150.1,0,0,1-1833.5-376.5Zm-17.923-141.862v31.692c0,16.441,9.341,25.871,25.628,25.871s25.628-9.429,25.628-25.871v-31.692H-1813.1v31.2a25.2,25.2,0,0,1-.845,6.912,12.219,12.219,0,0,1-2.459,4.721,9.747,9.747,0,0,1-3.96,2.7,15.249,15.249,0,0,1-5.348.862,15.109,15.109,0,0,1-5.313-.862,9.818,9.818,0,0,1-3.964-2.7,12.258,12.258,0,0,1-2.478-4.721,24.91,24.91,0,0,1-.856-6.912v-31.2h-13.1Zm-40.335-.969a34.528,34.528,0,0,0-12.376,2.208A29.468,29.468,0,0,0-1913.94-511a27.621,27.621,0,0,0-6.456,9.271,29.547,29.547,0,0,0-2.326,11.667A29.551,29.551,0,0,0-1920.4-478.4a27.623,27.623,0,0,0,6.456,9.272,29.468,29.468,0,0,0,9.806,6.119,34.526,34.526,0,0,0,12.376,2.208,34.525,34.525,0,0,0,12.341-2.2,29.506,29.506,0,0,0,9.81-6.1,27.6,27.6,0,0,0,6.475-9.268,29.557,29.557,0,0,0,2.337-11.7,29.557,29.557,0,0,0-2.337-11.7,27.593,27.593,0,0,0-6.475-9.268,29.5,29.5,0,0,0-9.81-6.1A34.531,34.531,0,0,0-1891.758-519.331Zm97.165.967v10.673h18.108v45.919h13.1V-507.69h18.11v-10.673h-49.315Zm-149.955-29.717h0l-4.446,9.862a30.242,30.242,0,0,0,10.035,4.73,47.773,47.773,0,0,0,13.007,1.819,36.817,36.817,0,0,0,10.572-1.411,21.964,21.964,0,0,0,7.5-3.814,15.862,15.862,0,0,0,4.464-5.588,15.615,15.615,0,0,0,1.478-6.732,13.314,13.314,0,0,0-6.8-12.2c-3.986-2.432-9.208-3.626-13.815-4.68-6.592-1.508-12.284-2.81-12.284-7.135a5.341,5.341,0,0,1,2.465-4.566c1.848-1.26,4.636-1.9,8.287-1.9a32.021,32.021,0,0,1,15.683,4.445l4.044-9.943c-5.051-3.185-12.212-5.013-19.645-5.013a36.6,36.6,0,0,0-10.514,1.4,21.631,21.631,0,0,0-7.444,3.8,15.754,15.754,0,0,0-4.428,5.607,16.016,16.016,0,0,0-1.464,6.813,13.506,13.506,0,0,0,6.8,12.335c3.982,2.462,9.2,3.674,13.805,4.744,6.6,1.534,12.3,2.858,12.3,7.254a4.874,4.874,0,0,1-2.547,4.336c-1.865,1.147-4.68,1.728-8.367,1.728a33.267,33.267,0,0,1-18.677-5.9Zm78.981-42.121a34.525,34.525,0,0,0-12.376,2.208,29.469,29.469,0,0,0-9.806,6.118,27.623,27.623,0,0,0-6.456,9.272,29.55,29.55,0,0,0-2.326,11.668,29.55,29.55,0,0,0,2.326,11.667A27.626,27.626,0,0,0-1887.75-540a29.47,29.47,0,0,0,9.807,6.119,34.523,34.523,0,0,0,12.376,2.208,34.527,34.527,0,0,0,12.341-2.2,29.5,29.5,0,0,0,9.81-6.1,27.6,27.6,0,0,0,6.475-9.268,29.557,29.557,0,0,0,2.337-11.7,29.557,29.557,0,0,0-2.337-11.7,27.592,27.592,0,0,0-6.475-9.268,29.507,29.507,0,0,0-9.81-6.1A34.531,34.531,0,0,0-1865.567-590.2Zm89.645.97v56.592h25.71a38.711,38.711,0,0,0,12.687-2.011,28.647,28.647,0,0,0,9.859-5.71,25.291,25.291,0,0,0,6.388-8.924,29.446,29.446,0,0,0,2.272-11.653,29.442,29.442,0,0,0-2.272-11.652,25.288,25.288,0,0,0-6.388-8.923,28.646,28.646,0,0,0-9.859-5.709,38.716,38.716,0,0,0-12.687-2.011h-25.71Zm-48.824,0v56.592h41.472V-543.31h-28.376v-45.921h-13.1Zm-67.011,117.274a17.607,17.607,0,0,1-12.643-5.022,16.836,16.836,0,0,1-3.718-5.721,19.946,19.946,0,0,1-1.345-7.366,19.947,19.947,0,0,1,1.345-7.366,16.84,16.84,0,0,1,3.718-5.722,17.605,17.605,0,0,1,12.643-5.023,17.6,17.6,0,0,1,12.641,5.023,16.843,16.843,0,0,1,3.718,5.722,19.947,19.947,0,0,1,1.345,7.366,19.947,19.947,0,0,1-1.345,7.366,16.838,16.838,0,0,1-3.718,5.721A17.605,17.605,0,0,1-1891.758-471.957Zm26.191-70.87a17.608,17.608,0,0,1-12.643-5.021,16.834,16.834,0,0,1-3.718-5.72,19.949,19.949,0,0,1-1.345-7.366,19.95,19.95,0,0,1,1.345-7.366,16.843,16.843,0,0,1,3.718-5.722,17.605,17.605,0,0,1,12.643-5.023,17.6,17.6,0,0,1,12.642,5.023,16.841,16.841,0,0,1,3.718,5.722,19.944,19.944,0,0,1,1.346,7.366,19.944,19.944,0,0,1-1.346,7.366,16.834,16.834,0,0,1-3.718,5.72A17.607,17.607,0,0,1-1865.567-542.828Zm114.708-.564h-11.965v-35.087h11.965c5.542,0,10.214,1.629,13.511,4.71,3.326,3.108,5.084,7.546,5.084,12.833s-1.758,9.726-5.084,12.834C-1740.645-545.02-1745.317-543.391-1750.859-543.391Z" transform="translate(1982.5 674.5)"/>
</svg>
